<!-- icons.svg -->
<svg xmlns="http://www.w3.org/2000/svg" style="display: none;">
    <symbol id="icon-eye" viewBox="0 0 24 24">
        <path d="M12 4.5C7.5 4.5 3.73 7.11 1.5 12c2.23 4.89 6 7.5 10.5 7.5s8.27-2.61 10.5-7.5c-2.23-4.89-6-7.5-10.5-7.5zM12 17c-2.76 0-5-2.24-5-5s2.24-5 5-5 5 2.24 5 5-2.24 5-5 5zm0-8c-1.66 0-3 1.34-3 3s1.34 3 3 3 3-1.34 3-3-1.34-3-3-3z"/>
    </symbol>

    <symbol id="icon-external" viewBox="0 0 24 24">
        <path d="M14 3h7v7h-2V6.41L10.41 15 9 13.59 17.59 5H14V3z"/>
        <path d="M19 19H5V5h7V3H5c-1.1 0-2 .9-2 2v14c0 1.1.9 2 2 2h14c1.1 0 2-.9 2-2v-7h-2v7z"/>
    </symbol>
</svg>
